HIERARCHY
ROOT Hips
{
	OFFSET 0.000000 0.000000 0.000000
	CHANNELS 6 Xposition Yposition Zposition Zrotation Yrotation Xrotation 
	JOINT LHipJoint
	{
		OFFSET 0.000000 0.000000 0.000000
		CHANNELS 3 Zrotation Yrotation Xrotation
		JOINT LeftUpLeg
		{
			OFFSET 1.363060 -1.794630 0.839290
			CHANNELS 3 Zrotation Yrotation Xrotation
			JOINT LeftLeg
			{
				OFFSET 2.448110 -6.726130 0.000000
				CHANNELS 3 Zrotation Yrotation Xrotation
				JOINT LeftFoot
				{
					OFFSET 2.562200 -7.039590 0.000000
					CHANNELS 3 Zrotation Yrotation Xrotation
					JOINT LeftToeBase
					{
						OFFSET 0.157640 -0.433110 2.322550
						CHANNELS 3 Zrotation Yrotation Xrotation
						End Site
						{
							OFFSET 0.000000 0.000000 0.000000
						}
					}
				}
			}
		}
	}
	JOINT RHipJoint
	{
		OFFSET 0.000000 0.000000 0.000000
		CHANNELS 3 Zrotation Yrotation Xrotation
		JOINT RightUpLeg
		{
			OFFSET -1.305520 -1.794630 0.839290
			CHANNELS 3 Zrotation Yrotation Xrotation
			JOINT RightLeg
			{
				OFFSET -2.542530 -6.985550 0.000000
				CHANNELS 3 Zrotation Yrotation Xrotation
				JOINT RightFoot
				{
					OFFSET -2.568260 -7.056230 0.000000
					CHANNELS 3 Zrotation Yrotation Xrotation
					JOINT RightToeBase
					{
						OFFSET -0.164730 -0.452590 2.363150
						CHANNELS 3 Zrotation Yrotation Xrotation
						End Site
						{
							OFFSET 0.000000 0.000000 0.000000
						}
					}
				}
			}
		}
	}
	JOINT LowerBack
	{
		OFFSET 0.000000 0.000000 0.000000
		CHANNELS 3 Zrotation Yrotation Xrotation
		JOINT Spine
		{
			OFFSET 0.028270 2.035590 -0.193380
			CHANNELS 3 Zrotation Yrotation Xrotation
			JOINT Spine1
			{
				OFFSET 0.056720 2.048850 -0.042750
				CHANNELS 3 Zrotation Yrotation Xrotation
				JOINT Neck
				{
					OFFSET 0.000000 0.000000 0.000000
					CHANNELS 3 Zrotation Yrotation Xrotation
					JOINT Neck1
					{
						OFFSET -0.054170 1.746240 0.172020
						CHANNELS 3 Zrotation Yrotation Xrotation
						JOINT Head
						{
							OFFSET 0.104070 1.761360 -0.123970
							CHANNELS 3 Zrotation Yrotation Xrotation
							End Site
							{
								OFFSET 0.000000 0.000000 0.000000
							}
						}
					}
				}
				JOINT LeftShoulder
				{
					OFFSET 0.000000 0.000000 0.000000
					CHANNELS 3 Zrotation Yrotation Xrotation
					JOINT LeftArm
					{
						OFFSET 3.362410 1.200890 -0.311210
						CHANNELS 3 Zrotation Yrotation Xrotation
						JOINT LeftForeArm
						{
							OFFSET 4.983000 -0.000000 -0.000000
							CHANNELS 3 Zrotation Yrotation Xrotation
							JOINT LeftHand
							{
								OFFSET 3.483560 -0.000000 -0.000000
								CHANNELS 3 Zrotation Yrotation Xrotation
								JOINT LeftFingerBase
								{
									OFFSET 0.000000 0.000000 0.000000
									CHANNELS 3 Zrotation Yrotation Xrotation
									JOINT LeftHandIndex1
									{
										OFFSET 0.715260 -0.000000 -0.000000
										CHANNELS 3 Zrotation Yrotation Xrotation
										End Site
										{
											OFFSET 0.000000 0.000000 0.000000
										}
									}
								}
								JOINT LThumb
								{
									OFFSET 0.000000 0.000000 0.000000
									CHANNELS 3 Zrotation Yrotation Xrotation
									End Site
									{
										OFFSET 0.000000 0.000000 0.000000
									}
								}
							}
						}
					}
				}
				JOINT RightShoulder
				{
					OFFSET 0.000000 0.000000 0.000000
					CHANNELS 3 Zrotation Yrotation Xrotation
					JOINT RightArm
					{
						OFFSET -3.136600 1.374050 -0.404650
						CHANNELS 3 Zrotation Yrotation Xrotation
						JOINT RightForeArm
						{
							OFFSET -5.241900 -0.000000 -0.000000
							CHANNELS 3 Zrotation Yrotation Xrotation
							JOINT RightHand
							{
								OFFSET -3.444170 -0.000000 -0.000000
								CHANNELS 3 Zrotation Yrotation Xrotation
								JOINT RightFingerBase
								{
									OFFSET 0.000000 0.000000 0.000000
									CHANNELS 3 Zrotation Yrotation Xrotation
									JOINT RightHandIndex1
									{
										OFFSET -0.622530 -0.000000 -0.000000
										CHANNELS 3 Zrotation Yrotation Xrotation
										End Site
										{
											OFFSET 0.000000 0.000000 0.000000
										}
									}
								}
								JOINT RThumb
								{
									OFFSET 0.000000 0.000000 0.000000
									CHANNELS 3 Zrotation Yrotation Xrotation
									End Site
									{
										OFFSET 0.000000 0.000000 0.000000
									}
								}
							}
						}
					}
				}
			}
		}
	}
}
MOTION
Frames: 5
Frame Time: 0.008333
24.992394 16.274489 2.083987 140.771879 -85.892240 -121.138725 -7.945802 -0.009087 5.708990 -9.126469 -11.478080 -54.899567 -1.680147 0.607679 24.444098 1.141135 7.385506 5.912756 2.585300 -0.000000 -34.138600 11.564101 -4.709759 -0.300355 2.446394 -7.227994 4.739694 1.061469 -1.711654 19.434733 0.196599 5.070761 12.394310 1.557500 -0.000000 -88.871100 -7.676451 1.283877 -5.865487 -2.638475 1.663439 -4.499091 -6.977798 1.476400 -0.506945 10.295877 0.509683 -6.410526 -4.277287 -0.346326 0.227428 0.000000 0.000000 0.000000 -4.408024 14.671492 3.153339 -62.506847 18.637978 -1.095872 -4.378013 -9.048513 -0.002461 3.588904 3.809869 0.124331 -0.091682 -0.063530 -0.000000 0.000000 0.000000 0.000000 0.000000 0.000000 0.000000 18.725943 8.141978 0.519879 71.896803 33.509382 21.574838 2.122561 43.263948 0.012539 1.391530 9.262099 0.117147 0.012544 -0.336380 -0.000000 0.000000 0.000000 0.000000 0.000000 0.000000 0.000000 
24.788473 16.311413 2.086129 137.477973 -85.871798 -117.931946 -7.774932 0.133123 5.674912 -9.700111 -11.648458 -54.225655 -1.690932 0.635568 25.016677 1.155686 7.469023 5.610954 2.559800 -0.000000 -33.393200 11.906669 -4.690709 -0.316633 1.847539 -7.728336 3.363041 0.734215 -1.936097 22.294449 0.016770 4.944416 15.367483 1.851200 -0.000001 -89.102600 -7.982095 1.231007 -5.853310 -2.714584 1.639510 -4.502634 -7.008440 1.452153 -0.528589 10.409665 0.538921 -6.393271 -4.295437 -0.347593 0.227323 0.000000 0.000000 0.000000 -4.310116 14.446007 3.142016 -62.508999 17.717759 -0.931659 -4.371108 -8.756571 -0.002530 3.722326 3.839706 0.129640 -0.089763 -0.058697 -0.000000 0.000000 0.000000 0.000000 0.000000 0.000000 0.000000 18.895913 8.094827 0.532333 72.139853 32.476692 21.067592 2.123891 42.703332 0.011689 1.173853 9.341879 0.099344 0.015403 -0.333298 -0.000000 0.000000 0.000000 0.000000 0.000000 0.000000 0.000000 
24.588475 16.349649 2.089325 134.640147 -85.802272 -115.186509 -7.615974 0.281992 5.640192 -10.289270 -11.768533 -53.452647 -1.724772 0.649057 25.439232 1.165509 7.490920 5.129451 2.492200 0.000000 -32.607599 12.232824 -4.616358 -0.341054 1.260070 -8.271153 1.850629 0.416969 -2.118279 25.321007 -0.199483 4.714769 18.255455 2.098500 -0.000000 -88.088600 -8.274949 1.180401 -5.827346 -2.786111 1.616566 -4.502988 -7.034359 1.428464 -0.547813 10.511644 0.569670 -6.373122 -4.313184 -0.348770 0.228005 0.000000 0.000000 0.000000 -4.229592 14.205130 3.128559 -62.563868 16.745270 -0.757286 -4.357444 -8.510962 -0.002526 3.877294 3.837695 0.134549 -0.087494 -0.053811 -0.000000 0.000000 0.000000 0.000000 0.000000 0.000000 0.000000 19.055038 8.039913 0.547966 72.395567 31.467290 20.572705 2.127095 42.025962 0.010835 0.955678 9.410275 0.081235 0.018261 -0.329203 -0.000000 0.000000 0.000000 0.000000 0.000000 0.000000 0.000000 
24.392621 16.388902 2.093775 132.264548 -85.697824 -112.903829 -7.472357 0.431696 5.607640 -10.876866 -11.847131 -52.596120 -1.777185 0.648253 25.714997 1.172972 7.467780 4.503722 2.392399 0.000000 -31.804900 12.531724 -4.490842 -0.371009 0.710411 -8.825932 0.226080 0.127603 -2.260223 28.466543 -0.442771 4.306252 20.918610 2.232200 0.000000 -85.858199 -8.547120 1.127776 -5.793390 -2.850795 1.589589 -4.500555 -7.056117 1.400201 -0.563466 10.602255 0.602266 -6.349596 -4.330643 -0.349878 0.229768 0.000000 0.000000 0.000000 -4.169638 13.950468 3.112699 -62.669873 15.729406 -0.565280 -4.337194 -8.319743 -0.002453 4.050369 3.799854 0.138862 -0.084916 -0.048953 -0.000000 0.000000 0.000000 0.000000 0.000000 0.000000 0.000000 19.204160 7.974850 0.566099 72.663143 30.487683 20.086841 2.132806 41.232744 0.010050 0.754891 9.458127 0.064120 0.020908 -0.323953 -0.000000 0.000000 0.000000 0.000000 0.000000 0.000000 0.000000 
24.200738 16.428999 2.100045 130.387356 -85.581549 -111.113219 -7.352732 0.573972 5.578841 -11.433422 -11.882612 -51.684315 -1.841203 0.634515 25.862135 1.179224 7.407444 3.770810 2.267700 -0.000001 -31.015800 12.787746 -4.326113 -0.403339 0.242620 -9.356081 -1.489159 -0.120298 -2.371346 31.681574 -0.700340 3.637353 23.215855 2.176800 0.000000 -82.630799 -8.776642 1.070873 -5.757948 -2.903597 1.554534 -4.494736 -7.073681 1.363417 -0.569777 10.678811 0.633626 -6.327339 -4.347251 -0.350823 0.231612 0.000000 0.000000 0.000000 -4.135852 13.706031 3.093005 -62.821639 14.646476 -0.321153 -4.309855 -8.170352 -0.002322 4.238005 3.722787 0.141976 -0.082074 -0.044118 -0.000000 0.000000 0.000000 0.000000 0.000000 0.000000 0.000000 19.337007 7.894788 0.583606 72.942017 29.546583 19.609221 2.141969 40.325383 0.009382 0.582808 9.483237 0.049199 0.023268 -0.317446 -0.000000 0.000000 0.000000 0.000000 0.000000 0.000000 0.000000 
